<?xml version="1.0" encoding="UTF-8"?>
<svg id="Layer_1" xmlns="http://www.w3.org/2000/svg" version="1.1" viewBox="0 0 100 100">
  <!-- Generator: Adobe Illustrator 29.1.0, SVG Export Plug-In . SVG Version: 2.1.0 Build 142)  -->
  <path d="M50,0C22.5,0,.5,13.7,0,31.1c0,.3.1.6.3.9.2.2.5.4.9.4h8.5v66.4c0,.7.5,1.2,1.2,1.2h78.1c.7,0,1.2-.5,1.2-1.2V32.4h8.5c.3,0,.6,0,.9-.4.2-.2.4-.6.3-.9C99.5,13.7,77.5,0,50,0ZM87.8,31.2v58.8l-36.6-9.2v-9.1l4.5-4.5c1.5,1.1,3.2,1.7,5,1.7s4.3-.8,6-2.5c3-3,4.1-13.6,4.2-14.8,0-.4,0-.7-.4-1s-.6-.4-1-.4c-1.2,0-11.7,1.1-14.8,4.2-3,3-3.2,7.7-.8,11l-2.8,2.8v-22.8c1.4.9,3,1.4,4.6,1.4s4.3-.8,6-2.5c3-3,4.1-13.6,4.2-14.8,0-.4,0-.7-.4-1s-.6-.4-1-.4c-1.2.1-11.7,1.1-14.8,4.2s-3.2,7.7-.7,11c0,0-.2.3-.2.4,0,.2-.2.4-.2.6v23.4l-3.4-3.4c1.5-1.8,2.3-4.1,2.3-6.5s-1.1-5.4-3.1-7.4c-3.8-3.8-17.2-5.1-18.7-5.3-.4,0-.7,0-1,.4-.3.3-.4.6-.4,1,.1,1.5,1.4,14.9,5.3,18.8s4.6,3.1,7.4,3.1,4.6-.8,6.4-2.3l5.1,5.1v9.4l-36.6,9.2V30.8c.6-10.9,17.2-19.4,38.1-19.4s37.5,8.5,37.8,19.3q0,.1,0,.2c0,.1,0,.2,0,.3ZM49.9,38.4c0-1.6.6-3.1,1.8-4.2,1.6-1.6,7.5-2.8,11.8-3.3-.5,4.2-1.7,10.1-3.3,11.8-2,2-5.2,2.3-7.5.8l6.5-6.5c.5-.5.5-1.2,0-1.7s-1.2-.5-1.7,0l-6.5,6.5c-.8-1.1-1.1-2.2-1.1-3.4ZM54.8,60.4c0-1.6.6-3.1,1.8-4.2,1.6-1.6,7.5-2.8,11.8-3.3-.6,4.2-1.8,10.1-3.4,11.7s-5.2,2.3-7.5.8l6.5-6.5c.5-.5.5-1.2,0-1.7s-1.2-.5-1.7,0l-6.5,6.5c-.7-1-1-2.1-1-3.3ZM35.1,54.2c-.5-.5-1.2-.5-1.7,0s-.5,1.2,0,1.7l8.6,8.6c-3.1,2.2-7.7,2-10.4-.8-2.4-2.4-3.9-11.2-4.4-15.8,4.6.5,13.4,2,15.8,4.4s2.4,3.5,2.4,5.7-.6,3.4-1.6,4.7l-8.7-8.5ZM12.3,97.6v-5.1l37.7-9.5,37.7,9.4v5.1H12.3ZM90.2,30c-1-12-18-21-40.2-21S10.8,18,9.8,30H2.6C4.1,14.7,24.9,2.4,50,2.4s45.9,12.2,47.4,27.5h-7.2Z"/>
</svg>