<?xml version="1.0" encoding="UTF-8"?>
<svg id="Layer_1" xmlns="http://www.w3.org/2000/svg" version="1.1" viewBox="0 0 100 100.2">
  <!-- Generator: Adobe Illustrator 29.1.0, SVG Export Plug-In . SVG Version: 2.1.0 Build 142)  -->
  <circle cx="3.2" cy="32.3" r="2.4"/>
  <circle cx="96.8" cy="32.3" r="2.4"/>
  <circle cx="15.5" cy="2.7" r="2.4"/>
  <circle cx="84.5" cy="61.9" r="2.4"/>
  <circle cx="15.5" cy="61.9" r="2.4"/>
  <circle cx="84.5" cy="2.7" r="2.4"/>
  <circle cx="6.5" cy="48.5" r="2.4"/>
  <circle cx="93.5" cy="16.1" r="2.4"/>
  <circle cx="6.4" cy="16.4" r="2.4"/>
  <circle cx="93.6" cy="48.2" r="2.4"/>
  <path d="M50,0C31.8,0,17.1,14.8,17.1,32.9s5,20.2,13.3,26.4l3.2,9.3c-1.4.9-2.4,2.4-2.4,4.2s1.2,3.7,2.9,4.5c-.6.8-.9,1.8-.9,2.9,0,2.1,1.3,3.9,3.2,4.6-.5.8-.9,1.7-.9,2.7,0,2.7,2.2,4.9,4.9,4.9h1.7c-.6.8-.9,1.8-.9,2.9,0,2.7,2.2,4.9,4.9,4.9h7.8c2.7,0,4.9-2.2,4.9-4.9s-.4-2-.9-2.9h1.7c2.7,0,4.9-2.2,4.9-4.9s-.3-2-.9-2.7c1.9-.7,3.2-2.5,3.2-4.6s-.4-2.1-.9-2.9c1.7-.8,2.9-2.5,2.9-4.5s-1-3.3-2.4-4.2l3.2-9.3c8.3-6.2,13.3-16.1,13.3-26.4C82.9,14.8,68.2,0,50,0ZM53.9,97.6h-7.8c-1.3,0-2.4-1.1-2.4-2.4s1.1-2.4,2.4-2.4h7.8c1.3,0,2.4,1.1,2.4,2.4s-1.1,2.4-2.4,2.4ZM59.5,89.8h-19c-1.3,0-2.4-1.1-2.4-2.4s1.1-2.4,2.4-2.4h19.1c1.3,0,2.4,1.1,2.4,2.4s-1.1,2.4-2.5,2.4ZM61.9,82.5h-23.8c-1.3,0-2.4-1.1-2.4-2.4s1.1-2.4,2.4-2.4h23.8c1.3,0,2.4,1.1,2.4,2.4s-1,2.4-2.4,2.4ZM63.9,75.2h-27.8c-1.3,0-2.4-1.1-2.4-2.4s1.1-2.4,2.4-2.4h27.7c1.3,0,2.4,1.1,2.4,2.4,0,1.3-1,2.4-2.3,2.4ZM67.9,57.6c-.2,0-.4.4-.4.6l-3.5,9.7h-10.3l2.1-25.2c1.3,1.4,3.2,2.2,5.2,2.2,4,0,7.3-3.3,7.3-7.3s-3.3-7.4-7.3-7.4-7.3,3.3-7.3,7.3,0,.4,0,.6v.2l-2.4,29.5h-2.5l-2.4-29.5s0,0,0-.2v-.6c0-4-3.3-7.3-7.3-7.3s-7.3,3.3-7.3,7.3,3.3,7.3,7.3,7.3,3.9-.8,5.2-2.2l2.1,25.2h-10.4l-3.4-9.7c0-.2-.2-.4-.4-.6-7.9-5.7-12.6-15-12.6-24.7,0-16.7,13.6-30.4,30.4-30.4s30.5,13.7,30.5,30.5-4.7,19-12.6,24.7ZM56.1,37.5c0-2.7,2.2-4.9,4.9-4.9s4.9,2.2,4.9,4.9-2.2,4.9-4.9,4.9-4.9-2.2-4.9-4.9ZM43.9,37.5c0,2.7-2.2,4.9-4.9,4.9s-4.9-2.2-4.9-4.9,2.2-4.9,4.9-4.9,4.9,2.2,4.9,4.9Z"/>
</svg>