<?xml version="1.0" encoding="UTF-8"?>
<svg id="Layer_1" xmlns="http://www.w3.org/2000/svg" version="1.1" viewBox="0 0 100 100">
  <!-- Generator: Adobe Illustrator 29.1.0, SVG Export Plug-In . SVG Version: 2.1.0 Build 142)  -->
  <path d="M100,11V1.2q0-.1,0-.2c0-.1,0-.3,0-.4,0,0,0,0,0-.1s0,0-.2-.2-.2-.2-.4-.3h0q0-.1-.2-.1t0,.1H32.9c-.4,0-.8.2-1,.5L.2,46.9H.2c0,.2-.1.2-.1.3v.2H.1v9.9c0,.7.5,1.2,1.2,1.2h19.7L.2,88.3H.2c-.1.2-.1.4-.2.5h0v9.9c0,.7.5,1.2,1.2,1.2h36.6c.2,0,.4,0,.5,0h0c0-.2.2-.3.3-.4h0c0,0,15.1-21.8,15.1-21.8v13c0,.7.5,1.2,1.2,1.2h17.1c.2,0,.4,0,.5,0h0c0-.2.2-.3.3-.4h0c0,0,26.6-38.3,26.6-38.3,0-.2.2-.4.2-.7v-16.7q0,0,0-.2c0,0,0-.3,0-.4,0,0,0,0,0,0s0,0-.2-.2c0,0-.2-.2-.4-.3h0q0,0-.2,0c0,0,0,0-.2,0h-14.6l15.8-22.7c0,0,.2-.3.2-.5ZM33.6,2.4h26.3l-30.5,43.9H3.5L33.6,2.4ZM2.4,56.1v-7.3h25.2l-5.1,7.3H2.4ZM30.8,48.6c.3-.2.5-.4.5-.8L62.8,2.4h33.6l-59.2,85.4H3.6l27.2-39.2ZM2.4,90.2h34.1v7.3H2.4v-7.3ZM56.3,74.9h14.7v14.6h-14.7v-14.6ZM73.4,86.9v-12.4h0c0,0,24-35,24-35v12.8l-24.1,34.6ZM82.3,36.8h14.1l-24.9,35.7h-14l23.5-33.8,1.3-1.9ZM97.6,10.6l-18.5,26.6-25,35.8h0c0,.2,0,.3,0,.4l-15,21.5v-5.5l31.9-46L97.6,5.1v5.5Z"/>
</svg>