<?xml version="1.0" encoding="UTF-8"?>
<svg id="Layer_1" xmlns="http://www.w3.org/2000/svg" version="1.1" viewBox="0 0 100 100">
  <!-- Generator: Adobe Illustrator 29.1.0, SVG Export Plug-In . SVG Version: 2.1.0 Build 142)  -->
  <path d="M98.8,24.4h-34c.4-.3.8-.6,1.2-1,3-3,4.1-13.6,4.2-14.8,0-.4,0-.7-.4-1s-.6-.4-1-.4c-1.2,0-11.7,1.1-14.7,4.2-3,3-3.2,7.7-.8,11l-1.4,1.4-4.7-4.7c3.3-4.1,3-10.1-.8-13.9C42.6,1.4,29.2.1,27.7,0c-.4,0-.7.1-1,.4-.3.3-.4.6-.4,1,.1,1.5,1.4,14.9,5.3,18.8,2,2,4.7,3.1,7.4,3.1s4.6-.8,6.4-2.3l3.5,3.5H1.2c-.7,0-1.2.5-1.2,1.2v7.3c0,.7.5,1.2,1.2,1.2h8.8l11.7,63.4h-10.7c-.7,0-1.2.5-1.2,1.2s.5,1.2,1.2,1.2h78c.7,0,1.2-.5,1.2-1.2s-.5-1.2-1.2-1.2h-10.7l11.7-63.5h8.7c.7,0,1.2-.5,1.2-1.2v-7.3c.1-.7-.4-1.2-1.1-1.2ZM55.9,13.2c1.6-1.6,7.5-2.8,11.8-3.3-.5,4.2-1.7,10.1-3.3,11.8-2,2-5.2,2.3-7.5.8l6.5-6.5c.5-.5.5-1.2,0-1.7s-1.2-.5-1.7,0l-6.5,6.5c-1.6-2.4-1.4-5.6.7-7.6ZM55.4,24.4h-.5l.2-.2c0,0,.2.1.3.2ZM33.4,18.4c-2.5-2.5-3.9-11.2-4.4-15.8,4.6.5,13.4,2,15.8,4.4,2.8,2.8,3.1,7.3.8,10.4l-8.6-8.6c-.5-.5-1.2-.5-1.7,0s-.5,1.2,0,1.7l8.6,8.6c-3.3,2.3-7.7,2.1-10.5-.7ZM31.5,97.6l-9.5-45.3c.1-3.3,2.8-6,6.1-6s6.1,2.7,6.1,6.2l4.7,45h-7.4ZM46.3,97.6l-2.4-45.1c0-3.4,2.7-6.1,6.1-6.1s6.1,2.7,6.1,6l-2.4,45.2s-7.4,0-7.4,0ZM61.1,97.6l4.7-45.1c0-3.4,2.7-6.1,6.1-6.1s6,2.7,6.1,6l-9.5,45.2s-7.4,0-7.4,0ZM75.8,97.6h-4.8l9.4-44.9v-.3c0-4.7-3.8-8.5-8.5-8.5s-8.5,3.8-8.5,8.4l-4.8,45.3h-2.5l2.4-45.1c0-4.7-3.8-8.5-8.5-8.5s-8.5,3.8-8.5,8.6l2.4,45.1h-2.5l-4.8-45.1c0-4.7-3.8-8.5-8.5-8.5s-8.5,3.8-8.5,8.5v.3l9.4,44.7h-4.8l-11.8-63.5h75.1l-11.7,63.5ZM97.6,31.7H2.4v-4.9h95.1v4.9h0Z"/>
</svg>