<?xml version="1.0" encoding="UTF-8"?>
<svg id="Layer_1" xmlns="http://www.w3.org/2000/svg" version="1.1" viewBox="0 0 100 100">
  <!-- Generator: Adobe Illustrator 29.1.0, SVG Export Plug-In . SVG Version: 2.1.0 Build 142)  -->
  <path d="M100,46.9c0-.4-.2-.9-.6-1.1l-9.2-5.1,9.2-5.1c.4-.2.6-.6.6-1.1s-.2-.9-.6-1.1l-8.3-4.6,8.3-4.6c.4-.2.6-.7.6-1.1s-.3-.9-.7-1.1L50.5,0c-.3-.1-.7-.1-1,0L.7,22c-.4.3-.7.7-.7,1.2s.2.9.6,1.1l8.3,4.6L.6,33.5c-.4.2-.6.6-.6,1.1s.2.9.6,1.1l9.2,5.1L.6,45.9c-.4.2-.6.6-.6,1s.2.9.6,1.1l9.2,5.1L.6,58.2c-.4.2-.6.6-.6,1.1s.2.9.6,1.1l9.2,5.1-9.2,5.1c-.4,0-.6.6-.6,1s.2.9.6,1.1l48.8,27.2c.2,0,.4.2.6.2s.4,0,.6-.2l48.8-27.2c.4-.2.6-.6.6-1.1s-.2-.9-.6-1.1l-9.2-5.1,9.2-5.1c.4-.2.6-.6.6-1.1s-.2-.9-.6-1.1l-9.2-5.1,9.2-5.1c.4-.1.6-.5.6-1ZM50,2.6l46.1,20.8-46.1,25.6L3.9,23.3,50,2.6ZM11.4,30.3l38,21.2c.2,0,.4.2.6.2s.4,0,.6-.2l38-21.2,7.7,4.3-46.3,25.8L3.7,34.6l7.7-4.3ZM88,67l8.3,4.6-46.3,25.8L3.7,71.6l8.3-4.6c.1,0,.1,0,.2-.2l37.2,20.7c.2,0,.4.2.6.2s.4,0,.6-.2l37.2-20.7c0,0,0,0,.2.2ZM88,54.6l8.3,4.6-46.3,25.8L3.7,59.3l8.3-4.6c.1,0,.1,0,.2-.2l37.2,20.7c.2,0,.4.2.6.2s.4,0,.6-.2l37.2-20.7s0,.1.2.1ZM50,72.7L3.7,46.9l8.3-4.6c.1,0,.1,0,.2-.2l37.2,20.7c.2,0,.4.2.6.2s.4,0,.6-.2l37.2-20.7q0,0,.2.2l8.3,4.6-46.3,25.8Z"/>
</svg>