<?xml version="1.0" encoding="UTF-8"?>
<svg id="Layer_1" xmlns="http://www.w3.org/2000/svg" version="1.1" viewBox="0 0 100 100">
  <!-- Generator: Adobe Illustrator 29.1.0, SVG Export Plug-In . SVG Version: 2.1.0 Build 142)  -->
  <path d="M19.2,31.8c3,0,4.5-4.9,4.5-9.8s-1.6-9.8-4.5-9.8-4.5,4.9-4.5,9.8,1.6,9.8,4.5,9.8ZM19.2,14.7c.5,0,2.1,2.5,2.1,7.3s-1.5,7.3-2.1,7.3-2.1-2.5-2.1-7.3,1.6-7.3,2.1-7.3Z"/>
  <path d="M18.3,46.2c6.1,0,10.9-9.5,10.9-21.7S24.4,2.8,18.3,2.8,7.5,12.3,7.5,24.5s4.7,21.7,10.8,21.7ZM18.3,5.2c4.1,0,8.4,7.7,8.4,19.2s-4.4,19.2-8.4,19.2-8.4-7.6-8.4-19.1S14.3,5.2,18.3,5.2Z"/>
  <path d="M47,1c0-.6-.6-1-1.2-1H1.2C.5,0,0,.5,0,1.2v97.6c0,.7.5,1.2,1.2,1.2h36.7c.7,0,1.2-.5,1.2-1.2,0-10.8,2.5-14,5.4-17.8,3.9-5.1,8.4-10.8,8.4-34.7S48.6,10,47,1ZM26.8,2.4c3.1,6.4,4.8,15.4,4.8,24.7,0,18.2-6.7,33.5-14.6,33.5S2.4,45.3,2.4,27.2,4.2,8.9,7.3,2.5h19.5ZM2.4,2.4h2.2c-.8,1.9-1.5,4-2.2,6.2V2.4ZM17,63.2c9.6,0,17-15.8,17-36s-1.7-18.1-4.6-24.7h9c2.5,8.6,3.7,18.5,3.7,28.7,0,29.6-10.7,53.6-23.8,53.6s-11.5-4.9-15.9-13.9v-25c3,10.4,8.4,17.3,14.6,17.3ZM42.6,79.5c-2.9,3.8-5.7,7.3-5.9,18H2.4v-21.7c4.6,7.3,10.1,11.3,15.9,11.3,14.7,0,26.3-24.6,26.3-56s-1.3-20-3.7-28.7h3.9c1.6,9.5,5.6,35.5,5.6,43.9.1,23.1-4.1,28.5-7.8,33.2Z"/>
  <path d="M98.8,0h-37.8c-.5,0-.9.3-1.1.7-.2.4-.2,1,0,1.3,6.3,7.4,4.9,24.7,4,36.1-.3,3.3-.5,6.1-.5,8.1,0,24,5.8,29.8,10.9,34.9s6.9,6.9,6.9,17.6.5,1.2,1.2,1.2h16.2c.7,0,1.2-.5,1.2-1.2V1.2c.1-.7-.4-1.2-1.1-1.2ZM97.6,32.5c-2.9-1.4-5.1-5.9-5.1-10.9s2.1-9.5,5.1-10.9v21.8ZM97.6,2.4v5.6c-4.4,1.4-7.6,7-7.6,13.6s3.2,12.1,7.5,13.5v24.5c-5.9-3.8-10.1-17.1-10.1-32.4s1.6-18.3,4.5-24.7h5.7ZM89.3,2.4c-2.7,6.7-4.3,15.5-4.3,24.8,0,17.3,5.2,31.8,12.5,35.2v19.4c-12.4-7.5-20.9-27.9-20.9-50.6s1.7-20.1,4.9-28.7h7.8ZM83.8,97.6c-.3-10.8-3.8-14.4-7.6-18.2-4.8-4.7-10.2-10.1-10.2-33.1s.2-4.7.5-7.9c.9-11,2.2-27.1-3.1-35.9h15.6c-3.1,8.7-4.7,18.5-4.7,28.7,0,24.3,9.6,46,23.3,53.4v13.1h-13.8Z"/>
  <path d="M58.9,79.2c-6.1,0-10.8,8-10.8,18.2v1.4c0,.7.6,1.2,1.2,1.2h19.2c.7,0,1.2-.5,1.2-1.2v-1.4c.1-10.2-4.7-18.2-10.8-18.2ZM56.3,92.1c0-3.1,1.4-5.5,2.6-5.5s2.6,2.3,2.6,5.5-1.4,5.5-2.6,5.5-2.6-2.4-2.6-5.5ZM67.3,97.6h-4.8c.9-1.4,1.4-3.3,1.4-5.5,0-4.4-2.2-7.9-5-7.9s-5,3.5-5,7.9.5,4.1,1.4,5.5h-4.8v-.2c0-8.5,3.9-15.7,8.4-15.7s8.4,7.2,8.4,15.7q0,0,0,.2Z"/>
</svg>