<?xml version="1.0" encoding="UTF-8"?>
<svg id="Layer_1" xmlns="http://www.w3.org/2000/svg" version="1.1" viewBox="0 0 100 100">
  <!-- Generator: Adobe Illustrator 29.1.0, SVG Export Plug-In . SVG Version: 2.1.0 Build 142)  -->
  <path d="M17.9,76.6c5.6,5.8,13,9,20.8,9h0c7.6,0,14.8-3.1,20.1-8.6,11.2-11.6,11-30.6-.4-42.3-5.6-5.8-13-9-20.8-9s-14.8,3.1-20.1,8.6c-11.2,11.5-11,30.5.4,42.3ZM19.2,35.9c4.9-5.1,11.4-7.8,18.4-7.8s13.9,2.9,19.1,8.2c10.5,10.9,10.6,28.3.4,39-4.9,5.1-11.4,7.8-18.4,7.8s-13.9-2.9-19.1-8.2c-10.4-10.9-10.6-28.4-.4-39Z"/>
  <path d="M24.3,69.8c3.8,3.9,8.8,6.1,14.2,6.1s10.1-2.1,13.7-5.9c7.6-7.9,7.5-20.8-.3-28.8-3.8-3.9-8.8-6.1-14.2-6.1h0c-5.2,0-10.1,2.1-13.7,5.9-7.5,7.9-7.4,20.8.3,28.8ZM25.8,42.8c3.2-3.3,7.4-5.1,12-5.1s9.1,1.9,12.4,5.4c6.8,7.1,6.9,18.5.3,25.4-3.2,3.3-7.4,5.1-12,5.1s-9.1-1.9-12.4-5.4c-6.8-7.1-6.9-18.5-.3-25.4Z"/>
  <path d="M98.8,42.4h-4.5c-1.7-9.1-5.9-17.3-12.3-23.9-8.5-8.8-19.7-13.6-31.5-13.6s-22.3,4.6-30.4,13l-9.2,9.5h0c-14.7,15.3-14.5,40.3.5,55.9,7.4,7.7,17.1,11.9,27.5,11.9s19.5-4,26.5-11.3c14.7-15.3,14.5-40.3-.5-55.9-7.4-7.7-17.1-12-27.5-12s-10.8,1.2-15.6,3.5h0c7.6-7.9,17.8-12.2,28.6-12.2s21.7,4.6,29.7,12.8c5.9,6.1,9.9,13.8,11.5,22.2h-4.6c-.7,0-1.2.5-1.2,1.2v7.1c0,.7.5,1.2,1.2,1.2h1l1.4,24.3c0,.6.6,1.1,1.2,1.1h4.5c.6,0,1.2-.5,1.2-1.1l1.6-24.1h.9c.7,0,1.2-.5,1.2-1.2v-7.1c0-.8-.5-1.3-1.2-1.3ZM63.2,29.6c14.1,14.6,14.3,38.2.5,52.5-6.6,6.8-15.4,10.6-24.8,10.6s-18.8-3.9-25.7-11.1C-.9,67-1.2,43.4,12.6,29.1c6.6-6.8,15.4-10.6,24.8-10.6s18.8,3.9,25.8,11.1ZM88.3,44.8h9.2v4.7h-9.2s0-4.7,0-4.7ZM94.1,74.9h-2.2l-1.4-23h5l-1.4,23Z"/>
</svg>