<?xml version="1.0" encoding="UTF-8"?>
<svg id="Layer_1" xmlns="http://www.w3.org/2000/svg" version="1.1" viewBox="0 0 100 100">
  <!-- Generator: Adobe Illustrator 29.1.0, SVG Export Plug-In . SVG Version: 2.1.0 Build 142)  -->
  <path d="M18.1,78.4c-1.8-1-3.8-1.3-5.7-.7-4.1,1.1-6.5,5.5-5.4,9.7.5,2.1,1.8,3.8,3.7,4.9,1.1.7,2.4,1,3.7,1s1.4,0,2-.3c4.1-1.1,6.5-5.5,5.4-9.7-.5-2.1-1.8-3.8-3.7-4.9ZM15.8,90.7c-1.3.4-2.7.2-3.8-.5-1.3-.7-2.2-1.9-2.5-3.4-.8-2.9.9-6,3.7-6.8.4,0,.9-.2,1.3-.2.9,0,1.7.2,2.5.7,1.3.7,2.2,1.9,2.5,3.4.7,2.9-1,6-3.7,6.8Z"/>
  <path d="M98.8,0h-20.6c-.7,0-1.2.5-1.2,1.2v8.1h0l-2.4,13.3L.9,43.4c-.6.2-1,.8-.8,1.5l2.5,9.6h0l.2.7c0,.3.2.5.4.6l28.6,23.3-4.1,1.2c-1.2-3.3-3.3-6.1-6.4-7.8-3.2-1.9-6.9-2.3-10.5-1.3-7.5,2.1-12,10.2-10,18,1,3.9,3.4,7.1,6.8,9,2.1,1.2,4.4,1.8,6.8,1.8s2.5-.2,3.7-.5c7.1-2,11.5-9.4,10.2-16.8l48.2-13.6,16.2,4.8c.5.2,1,0,1.3-.5.3-.4.3-1,0-1.4l-19.1-26.3,1-11.3v-.4l.9-10.3,2.3-13.3h19.5c.7,0,1.2-.5,1.2-1.2V1.2c.2-.7-.3-1.2-1-1.2ZM72.5,45c-.3.4-.4.9,0,1.4l-1.2,13.5c-.5,5-3.9,9.3-8.6,10.6h0l-28,7.9L5.7,54.9l67.6-19-.8,9.1ZM74.3,25.3l-.7,8L4.6,52.7l-1.9-7.3,71.6-20.1ZM17.4,97.1c-2.9.8-6,.4-8.6-1.1-2.8-1.6-4.8-4.2-5.6-7.5-1.7-6.5,2-13.2,8.2-15,1-.3,2-.4,3-.4,1.9,0,3.8.5,5.6,1.5,2.8,1.6,4.8,4.3,5.6,7.5,1.7,6.6-2,13.3-8.2,15ZM90,70.6l-13.1-3.8c-.2,0-.5,0-.7,0l-6.1,1.7c1.9-2.3,3.2-5.1,3.5-8.3l1-10.7,15.4,21.1ZM97.6,8.1h-18.2V2.4h18.1v5.7h0Z"/>
</svg>