<svg width="24" height="24" viewBox="0 0 24 24" fill="none" xmlns="http://www.w3.org/2000/svg">
<rect width="24" height="24" fill="white"/>
<path d="M8.80547 15.9315C8.80547 14.1228 8.80547 12.4433 8.80547 10.6347C8.93465 8.30931 10.2266 7.14661 12.2936 8.05093C13.3271 8.4385 13.973 8.56769 14.7482 8.18013C16.686 7.14662 18.3654 7.92173 20.1741 8.56768C21.3368 8.95524 21.9827 9.85956 22.3703 11.0223C23.4038 14.3812 23.4038 17.7401 23.2746 21.099C23.2746 22.0033 22.8871 22.6493 21.8535 22.7784C21.5952 22.7784 21.466 22.7785 21.2076 22.9076C17.5903 23.5536 17.2027 23.2952 17.5903 19.6779C17.7195 18.1277 17.9779 16.5774 17.5903 15.0271C17.3319 14.252 17.0736 13.3477 16.04 13.2185C15.1357 13.0893 14.4898 13.7352 13.973 14.3812C13.4563 15.0271 13.3271 15.8022 13.3271 16.7066C13.3271 17.9984 13.3271 19.1612 13.3271 20.4531C13.3271 23.0368 13.1979 23.166 10.8725 23.0368C8.67629 23.0368 8.67627 23.0368 8.67627 20.8406C8.80546 19.2903 8.80547 17.6109 8.80547 15.9315Z" fill="black"/>
<path d="M1.70024 15.6733C1.70024 13.8647 1.70024 12.1852 1.70024 10.3766C1.70024 8.82629 2.60458 8.56791 3.89647 8.43872C5.31754 8.43872 5.5759 9.21385 5.5759 10.3766C5.83428 13.7355 5.83429 17.0944 5.7051 20.4533C5.7051 21.616 5.70511 23.0371 3.89647 23.0371C2.3462 23.1663 1.57104 22.5203 1.57104 20.97C1.57104 19.1614 1.57104 17.2235 1.57104 15.4149C1.57104 15.6733 1.70024 15.6733 1.70024 15.6733Z" fill="black"/>
<path d="M2.86293 1.33325C4.80077 1.33325 5.8343 2.10838 5.8343 3.27108C5.8343 4.69216 4.15482 6.37161 2.86293 6.37161C1.57105 6.37161 0.666748 5.3381 0.666748 3.91703C0.795937 2.23757 1.57105 1.33325 2.86293 1.33325Z" fill="black"/>
</svg>
